@startuml
skinparam monochrome true
skinparam shadowing false
skinparam defaultFontName Arial
skinparam classAttributeIconSize 0
skinparam linetype ortho
skinparam classBackgroundColor transparent
skinparam classBorderColor black
skinparam classAttributeBackgroundColor transparent
skinparam backgroundColor transparent
skinparam classBackgroundColor transparent
skinparam classBorderColor black
skinparam classAttributeBackgroundColor transparent
skinparam backgroundColor transparent


interface CalendarController <<REST>>
interface AgentService <<Service>>

interface TaskRepository <<Repository>>
interface SubtaskRepository <<Repository>>
interface TimeslotRepository <<Repository>>


class TaskRequest <<DTO>>
class TaskResponse <<DTO>>
class SubtaskCreateRequest <<DTO>>
class SubtaskUpdateRequest <<DTO>>
class SubtaskResponse <<DTO>>
class StatusPatch <<DTO>>
class TimeslotResponse <<DTO>>

interface CalendarService <<Service>> {
    + createTask(userId: UUID, req: TaskRequest): TaskResponse
    + getTasks(userId: UUID): List<TaskResponse>
    + getTask(id: UUID): TaskResponse
    + updateTask(id: UUID,\n req: TaskRequest): TaskResponse
    + deleteTask(id: UUID): void
    + createSubtask(userId: UUID,\n req: SubtaskCreateRequest): SubtaskResponse
    + getSubtask(id: UUID): SubtaskResponse
    + getSubtasksByTask(taskId: UUID): List<SubtaskResponse>
    + updateSubtask(id: UUID,\n req: SubtaskUpdateRequest): SubtaskResponse
    + updateStatus(id: UUID, status: SubtaskStatus): SubtaskResponse
    + deleteSubtask(id: UUID): void
    + getOccupiedSlots(userId: UUID,\n from: Timestamp,\n to: Timestamp): List<TimeslotResponse>
}

CalendarController ..> CalendarService
AgentService ..> CalendarService

CalendarService .up.> TaskRepository
CalendarService .up.> SubtaskRepository
CalendarService .up.> TimeslotRepository



CalendarService ..> TaskRequest
CalendarService ..> TaskResponse
CalendarService ..> SubtaskCreateRequest
CalendarService ..> SubtaskUpdateRequest
CalendarService .down.> SubtaskResponse
CalendarService .down.> StatusPatch
CalendarService .right.> TimeslotResponse


@enduml
